HIERARCHY
ROOT Hips
{
	OFFSET 0.000000 0.000000 0.000000
	CHANNELS 6 Xposition Yposition Zposition Zrotation Yrotation Xrotation 
	JOINT LowerBack
	{
		OFFSET 0.000000 0.000000 0.000000
		CHANNELS 3 Zrotation Yrotation Xrotation
		JOINT Spine
		{
			OFFSET 0.028270 2.035590 -0.193380
			CHANNELS 3 Zrotation Yrotation Xrotation
			JOINT Spine1
			{
				OFFSET 0.056720 2.048850 -0.042750
				CHANNELS 3 Zrotation Yrotation Xrotation
				JOINT Neck
				{
					OFFSET 0.000000 0.000000 0.000000
					CHANNELS 3 Zrotation Yrotation Xrotation
					JOINT Neck1
					{
						OFFSET -0.054170 1.746240 0.172020
						CHANNELS 3 Zrotation Yrotation Xrotation
						JOINT Head
						{
							OFFSET 0.104070 1.761360 -0.123970
							CHANNELS 3 Zrotation Yrotation Xrotation
							End Site
							{
								OFFSET 0.000000 0.000000 0.000000
							}
						}
					}
				}
				JOINT LeftShoulder
				{
					OFFSET 0.000000 0.000000 0.000000
					CHANNELS 3 Zrotation Yrotation Xrotation
					JOINT LeftArm
					{
						OFFSET 3.362410 1.200890 -0.311210
						CHANNELS 3 Zrotation Yrotation Xrotation
						JOINT LeftForeArm
						{
							OFFSET 4.983000 -0.000000 -0.000000
							CHANNELS 3 Zrotation Yrotation Xrotation
							JOINT LeftHand
							{
								OFFSET 3.483560 -0.000000 -0.000000
								CHANNELS 3 Zrotation Yrotation Xrotation
								JOINT LeftFingerBase
								{
									OFFSET 0.000000 0.000000 0.000000
									CHANNELS 3 Zrotation Yrotation Xrotation
									JOINT LeftHandIndex1
									{
										OFFSET 0.715260 -0.000000 -0.000000
										CHANNELS 3 Zrotation Yrotation Xrotation
										End Site
										{
											OFFSET 0.000000 0.000000 0.000000
										}
									}
								}
								JOINT LThumb
								{
									OFFSET 0.000000 0.000000 0.000000
									CHANNELS 3 Zrotation Yrotation Xrotation
									End Site
									{
										OFFSET 0.000000 0.000000 0.000000
									}
								}
							}
						}
					}
				}
				JOINT RightShoulder
				{
					OFFSET 0.000000 0.000000 0.000000
					CHANNELS 3 Zrotation Yrotation Xrotation
					JOINT RightArm
					{
						OFFSET -3.136600 1.374050 -0.404650
						CHANNELS 3 Zrotation Yrotation Xrotation
						JOINT RightForeArm
						{
							OFFSET -5.241900 -0.000000 -0.000000
							CHANNELS 3 Zrotation Yrotation Xrotation
							JOINT RightHand
							{
								OFFSET -3.444170 -0.000000 -0.000000
								CHANNELS 3 Zrotation Yrotation Xrotation
								JOINT RightFingerBase
								{
									OFFSET 0.000000 0.000000 0.000000
									CHANNELS 3 Zrotation Yrotation Xrotation
									JOINT RightHandIndex1
									{
										OFFSET -0.622530 -0.000000 -0.000000
										CHANNELS 3 Zrotation Yrotation Xrotation
										End Site
										{
											OFFSET 0.000000 0.000000 0.000000
										}
									}
								}
								JOINT RThumb
								{
									OFFSET 0.000000 0.000000 0.000000
									CHANNELS 3 Zrotation Yrotation Xrotation
									End Site
									{
										OFFSET 0.000000 0.000000 0.000000
									}
								}
							}
						}
					}
				}
			}
		}
	}
}
}
MOTION
Frames: 6
Frame Time: 0.008333
2.729043 16.327925 1.972328 -4.704700 -85.446156 24.417179 4.495047 -3.157663 -0.163058 0.340408 -3.486452 -3.837194 -5.802373 -3.490784 -4.532995 9.820108 -7.617460 -0.686484 -2.965808 -0.301196 1.868178 0.000000 0.000000 0.000000 14.562682 -3.502179 -6.462351 -90.319157 -53.810997 20.630657 178.964173 -63.396073 179.748197 12.225448 -14.873723 -1.774449 -0.117347 1.425017 -0.000000 0.000000 0.000000 0.000000 0.000000 0.000000 0.000000 6.176735 -6.093525 1.543323 61.150264 4.296673 5.090241 -179.693535 80.878943 179.809287 -24.726887 13.485558 -3.153938 0.315497 -0.661517 0.000000 0.000000 0.000000 0.000000 0.000000 0.000000 0.000000 
2.702151 16.338166 2.007695 -1.831421 -82.530992 21.646215 4.348604 -3.131617 -0.371119 0.335291 -3.454293 -3.901277 -5.696380 -3.464096 -4.595650 9.844173 -7.785968 -0.758972 -2.918738 -0.297749 1.852276 0.000000 0.000000 0.000000 14.362751 -3.630301 -6.599682 -92.018870 -53.382560 22.996894 179.030889 -63.870410 179.746436 12.463483 -14.841565 -1.807357 -0.132081 1.425234 -0.000000 0.000000 0.000000 0.000000 0.000000 0.000000 0.000000 5.998672 -6.062886 1.740986 59.537007 2.844029 3.992194 -179.727605 80.182652 179.812969 -24.757747 13.357397 -3.129343 0.328244 -0.657317 0.000000 0.000000 0.000000 0.000000 0.000000 0.000000 0.000000 
2.673845 16.354674 2.041570 0.179275 -79.505002 19.797630 4.066562 -3.122634 -0.608760 0.311247 -3.428890 -3.969855 -5.563225 -3.445859 -4.657060 9.835608 -7.950251 -0.823312 -2.854598 -0.293415 1.838832 0.000000 0.000000 0.000000 14.143714 -3.777475 -6.735484 -93.742178 -52.883818 25.404785 179.095301 -64.367324 179.745569 12.656012 -14.789689 -1.830974 -0.145904 1.424626 -0.000000 0.000000 0.000000 0.000000 0.000000 0.000000 0.000000 5.712166 -6.019432 1.935033 57.894389 1.472378 2.767973 -179.763091 79.435632 179.816126 -24.780593 13.275885 -3.114756 0.340942 -0.655223 -0.000000 0.000000 0.000000 0.000000 0.000000 0.000000 0.000000 
2.644140 16.376915 2.074029 1.758623 -76.392625 18.449012 3.668334 -3.124078 -0.872015 0.272029 -3.404273 -4.042881 -5.400600 -3.430156 -4.718816 9.789931 -8.091033 -0.879652 -2.772907 -0.288114 1.827662 0.000000 0.000000 0.000000 13.906253 -3.937930 -6.866205 -95.478625 -52.316002 27.836494 179.155574 -64.887613 179.745603 12.799172 -14.725507 -1.845703 -0.158460 1.423262 -0.000000 0.000000 0.000000 0.000000 0.000000 0.000000 0.000000 5.317446 -5.940786 2.128900 56.197954 0.146285 1.389801 -179.799768 78.671202 179.818618 -24.840594 13.227428 -3.112678 0.354134 -0.654584 -0.000000 0.000000 0.000000 0.000000 0.000000 0.000000 0.000000 
2.613181 16.404243 2.105049 3.098523 -73.219195 17.411563 3.161689 -3.131567 -1.152957 0.219064 -3.375870 -4.119171 -5.206539 -3.412487 -4.781629 9.704120 -8.192632 -0.928858 -2.674157 -0.281827 1.818321 0.000000 0.000000 0.000000 13.649198 -4.107766 -6.988200 -97.209564 -51.687735 30.271279 179.211038 -65.429228 179.746657 12.881082 -14.661168 -1.851144 -0.169123 1.421365 -0.000000 0.000000 0.000000 0.000000 0.000000 0.000000 0.000000 4.822398 -5.809203 2.326213 54.421586 -1.173039 -0.151548 -179.837258 77.922200 179.820376 -24.975058 13.193616 -3.123708 0.368330 -0.654646 -0.000000 0.000000 0.000000 0.000000 0.000000 0.000000 0.000000 
2.581237 16.435869 2.134389 4.305938 -70.014367 16.574930 2.551220 -3.141843 -1.437843 0.152952 -3.340077 -4.195525 -4.979936 -3.389122 -4.842927 9.571111 -8.245665 -0.973682 -2.558148 -0.274465 1.809725 0.000000 0.000000 0.000000 13.360648 -4.279719 -7.096483 -98.899367 -51.023180 32.689671 179.261381 -65.991107 179.748741 12.899780 -14.600293 -1.847506 -0.177645 1.418799 -0.000000 0.000000 0.000000 0.000000 0.000000 0.000000 0.000000 4.227645 -5.612508 2.530189 52.562712 -2.509316 -1.852545 -179.874915 77.233425 179.821447 -25.191707 13.165262 -3.146449 0.383435 -0.654889 -0.000000 0.000000 0.000000 0.000000 0.000000 0.000000 0.000000 
